<?xml version="1.0" standalone="no"?>
<!DOCTYPE svg PUBLIC "-//W3C//DTD SVG 20010904//EN"
 "http://www.w3.org/TR/2001/REC-SVG-20010904/DTD/svg10.dtd">
<svg version="1.0" xmlns="http://www.w3.org/2000/svg"
 width="1024.000000pt" height="1024.000000pt" viewBox="0 0 1024.000000 1024.000000"
 preserveAspectRatio="xMidYMid meet">

<g transform="translate(0.000000,1024.000000) scale(0.100000,-0.100000)"
fill="#000000" stroke="none">
<path d="M4880 8803 c-25 -2 -100 -13 -168 -24 -309 -51 -604 -155 -856 -301
l-68 -40 -44 50 c-93 107 -258 204 -400 238 -51 12 -97 15 -174 11 -118 -6
-182 -23 -288 -75 -460 -227 -514 -850 -101 -1162 45 -33 94 -67 110 -76 24
-12 28 -18 19 -34 -20 -37 -81 -267 -102 -385 -21 -116 -22 -148 -26 -994 l-3
-875 -78 -73 c-97 -90 -131 -142 -172 -263 -30 -87 -33 -105 -33 -225 -1 -123
0 -133 28 -188 51 -105 171 -202 290 -233 60 -16 206 -19 206 -4 0 6 8 10 18
10 30 1 98 37 140 75 57 51 100 122 128 210 29 91 30 125 6 203 -38 120 -148
242 -253 279 l-49 18 -1 130 c-1 71 -4 119 -8 105 -4 -13 -21 -33 -39 -43 -27
-16 -35 -17 -48 -6 -14 12 -16 97 -11 864 5 918 4 898 62 1140 51 212 158 461
273 635 128 194 432 464 682 605 200 113 478 223 675 267 209 46 542 62 760
38 254 -29 562 -120 780 -230 304 -154 644 -434 806 -665 126 -181 210 -357
274 -576 40 -137 52 -199 65 -339 10 -105 16 -1707 7 -1717 -3 -2 -24 -7 -46
-10 -46 -6 -55 -28 -18 -42 130 -50 169 -68 230 -110 70 -47 114 -87 106 -95
-2 -2 -38 7 -79 22 -62 21 -93 25 -175 25 -94 0 -104 -2 -170 -35 -90 -46
-160 -119 -211 -223 -36 -73 -39 -85 -39 -165 0 -78 3 -92 34 -152 41 -82 110
-153 176 -184 102 -47 298 -50 397 -6 94 41 192 158 223 267 13 44 16 81 13
147 -5 78 -10 99 -47 173 -22 46 -41 91 -41 100 0 49 -69 133 -163 198 l-47
32 -4 875 c-3 766 -5 888 -20 980 -24 145 -53 270 -87 367 -33 94 -33 93 -16
93 25 0 138 83 206 152 112 111 175 255 187 428 21 283 -142 561 -401 685
-106 51 -166 65 -280 65 -122 0 -215 -22 -334 -81 -86 -42 -119 -66 -190 -134
l-86 -83 -25 19 c-34 27 -215 118 -321 162 -214 89 -460 151 -691 176 -90 10
-382 12 -488 4z m-1588 -197 c91 -17 181 -53 244 -97 57 -39 144 -121 144
-136 0 -6 -19 -23 -42 -38 -47 -31 -125 -93 -176 -140 -19 -17 -31 -23 -27
-13 5 11 -6 25 -39 47 -151 104 -303 106 -415 5 -65 -58 -92 -111 -99 -189 -7
-96 36 -257 60 -223 7 9 8 8 4 -6 -4 -12 6 -33 32 -65 21 -25 43 -53 50 -62
11 -14 7 -28 -24 -88 -20 -39 -40 -71 -44 -71 -18 0 -152 104 -189 147 -53 63
-105 162 -126 243 -22 81 -15 229 13 312 74 221 289 378 529 387 17 0 65 -5
105 -13z m3820 -1 c107 -22 191 -68 278 -151 89 -85 131 -156 160 -270 51
-199 0 -387 -148 -546 -58 -61 -143 -128 -164 -128 -4 0 -8 8 -8 18 0 9 -18
46 -40 82 -22 36 -40 69 -40 74 0 4 22 32 48 61 86 93 132 222 112 311 -24
108 -86 186 -178 226 -39 16 -62 19 -137 16 -95 -5 -164 -29 -230 -82 l-30
-24 -55 51 c-30 27 -79 66 -107 85 -29 19 -53 38 -53 43 0 14 43 56 115 113
104 83 232 128 385 135 14 0 55 -6 92 -14z m-3729 -440 c26 -7 27 -8 11 -26
-9 -10 -21 -16 -26 -13 -4 3 -7 0 -6 -7 2 -7 -7 -18 -19 -24 -13 -5 -23 -16
-23 -23 0 -7 -8 -16 -17 -19 -10 -4 -21 -11 -25 -17 -5 -7 -8 -4 -8 7 0 9 6
17 14 17 8 0 18 5 21 10 4 6 1 9 -7 8 -17 -4 -23 54 -9 81 11 20 31 22 94 6z
m-113 -148 c0 -2 -10 -12 -21 -23 -22 -19 -22 -19 -8 4 12 19 29 30 29 19z
m-45 -46 c3 -5 1 -12 -5 -16 -5 -3 -10 1 -10 9 0 18 6 21 15 7z m-126 -190
c-21 -37 -39 -73 -39 -80 0 -6 -5 -11 -10 -11 -7 0 -7 6 -1 18 5 9 9 37 9 61
1 52 7 61 27 35 12 -16 14 -16 15 -3 0 9 -10 21 -22 28 -21 10 -21 11 10 8 18
-2 35 0 38 5 3 4 7 8 9 8 2 0 -14 -31 -36 -69z m4044 -41 c13 -15 14 -20 3
-20 -7 0 -16 9 -19 20 -3 11 -4 20 -3 20 1 0 9 -9 19 -20z m-4153 -2780 c-7
-4 -54 -10 -106 -13 -70 -4 -107 -12 -149 -31 -30 -14 -55 -22 -55 -18 0 4 20
30 44 58 45 51 101 82 220 125 l51 18 3 -66 c2 -42 -1 -69 -8 -73z m52 -163
c126 -74 191 -238 139 -353 -27 -59 -77 -111 -135 -142 -43 -23 -64 -27 -132
-27 -73 0 -88 4 -150 35 -83 43 -136 111 -155 198 -27 134 25 237 151 297 49
23 65 26 145 23 77 -3 98 -8 137 -31z m4398 8 c102 -36 160 -116 168 -230 4
-63 1 -80 -21 -128 -32 -70 -83 -126 -144 -157 -39 -21 -62 -25 -128 -25 -139
0 -224 45 -280 146 -124 225 144 486 405 394z"/>
<path d="M2240 8371 c0 -5 11 -8 25 -7 33 1 33 16 0 16 -14 0 -25 -4 -25 -9z"/>
<path d="M1760 8285 c0 -8 2 -15 4 -15 2 0 6 7 10 15 3 8 1 15 -4 15 -6 0 -10
-7 -10 -15z"/>
<path d="M8098 8073 c12 -2 32 -2 45 0 12 2 2 4 -23 4 -25 0 -35 -2 -22 -4z"/>
<path d="M8350 8064 c0 -8 5 -12 10 -9 6 3 11 -4 11 -17 1 -21 2 -21 7 -3 l5
20 8 -20 c6 -16 8 -14 8 13 1 28 -2 32 -24 32 -16 0 -25 -6 -25 -16z"/>
<path d="M8352 7790 c0 -19 2 -27 5 -17 2 9 2 25 0 35 -3 9 -5 1 -5 -18z"/>
<path d="M3963 7465 c-168 -37 -288 -168 -312 -340 -47 -329 293 -558 577
-388 80 48 118 88 155 162 41 83 50 216 20 296 -23 61 -53 72 -76 28 -20 -38
-45 -58 -89 -73 -78 -25 -144 25 -155 118 -7 65 17 115 68 145 21 12 39 25 39
30 0 27 -143 41 -227 22z"/>
<path d="M6040 7455 c-77 -21 -157 -80 -207 -154 -56 -81 -68 -126 -68 -246 0
-93 2 -105 32 -166 39 -79 102 -140 181 -177 50 -24 70 -27 157 -27 92 0 106
3 167 32 157 74 251 245 225 413 -8 57 -33 110 -54 117 -7 3 -33 -18 -58 -45
-53 -58 -94 -71 -148 -49 -103 44 -113 179 -19 257 27 22 33 33 25 41 -18 18
-171 21 -233 4z"/>
<path d="M5014 7001 c-52 -13 -118 -49 -150 -82 -25 -26 -29 -38 -29 -87 1
-31 4 -71 9 -88 7 -28 5 -32 -18 -38 -26 -6 -90 -69 -113 -109 -17 -31 -16
-121 3 -165 8 -20 28 -51 45 -67 24 -26 31 -44 38 -102 12 -100 52 -171 111
-200 40 -21 59 -23 185 -23 132 0 145 2 193 26 29 14 60 38 70 52 27 39 52
119 52 168 0 35 6 50 30 74 91 93 93 219 3 301 -33 31 -82 63 -87 58 -3 -2 5
-24 17 -49 12 -26 23 -73 25 -110 4 -60 2 -67 -23 -93 -23 -22 -37 -27 -76
-27 -42 0 -53 5 -89 38 -57 55 -56 89 5 121 132 70 195 219 132 314 -23 35
-92 79 -139 88 -52 10 -152 10 -194 0z m213 -127 c47 -35 42 -61 -21 -119 -76
-71 -97 -81 -135 -66 -16 7 -50 33 -76 57 -39 38 -46 50 -43 77 2 27 11 36 48
55 60 31 183 29 227 -4z m-341 -207 c12 -19 49 -51 83 -73 33 -21 61 -46 61
-55 0 -47 -82 -105 -136 -95 -40 8 -84 57 -84 94 0 46 35 162 49 162 3 0 16
-15 27 -33z m318 -338 c23 -10 53 -19 69 -19 30 0 35 -18 16 -67 -22 -60 -46
-74 -129 -74 -41 0 -101 -1 -132 -2 -50 -2 -61 1 -82 23 -13 14 -30 46 -39 71
l-15 46 49 6 c60 7 102 29 130 67 l22 29 35 -31 c20 -17 54 -39 76 -49z"/>
<path d="M4974 6819 c-9 -15 14 -46 50 -68 39 -24 47 -26 40 -8 -5 15 45 46
66 41 8 -3 6 0 -5 4 -38 17 -146 39 -151 31z"/>
<path d="M3505 5472 c-51 -24 -102 -82 -110 -126 -15 -78 61 -153 177 -176 35
-6 75 -18 90 -26 48 -25 47 -73 -3 -99 -43 -23 -90 -18 -155 15 -32 16 -64 30
-70 30 -6 0 -21 -11 -34 -25 l-23 -25 39 -36 c53 -49 87 -65 150 -71 147 -15
257 86 224 207 -17 64 -55 94 -152 119 -103 26 -132 41 -136 68 -4 28 42 63
82 63 50 0 104 -19 121 -43 l16 -22 30 35 c16 19 28 44 27 55 -8 58 -190 96
-273 57z"/>
<path d="M4363 5479 c-20 -7 -21 -15 -22 -156 -2 -223 18 -293 104 -358 47
-36 144 -46 209 -21 55 21 111 82 126 135 6 23 9 113 8 218 l-3 178 -42 3
c-39 3 -43 1 -49 -24 -4 -15 -4 -95 0 -178 6 -148 6 -153 -16 -187 -13 -18
-40 -42 -61 -52 -56 -28 -104 -6 -169 76 -1 1 -4 83 -7 181 l-6 180 -25 6
c-14 4 -35 4 -47 -1z"/>
<path d="M3844 5466 c-3 -8 -4 -29 -2 -48 l3 -33 83 -3 82 -3 1 -87 c1 -137 9
-315 15 -334 7 -24 69 -25 78 -2 3 9 6 108 6 220 l0 204 69 0 c88 0 101 5 101
40 0 62 7 60 -221 60 -171 0 -211 -3 -215 -14z"/>
<path d="M4900 5223 c0 -142 4 -264 9 -272 13 -19 218 -10 288 14 109 37 173
126 173 240 0 76 -31 144 -92 206 -59 59 -97 69 -252 69 l-126 0 0 -257z m229
156 c91 -21 140 -86 141 -186 0 -92 -66 -143 -202 -158 l-68 -7 0 159 c0 87
-3 168 -6 181 -6 21 -3 22 42 22 27 0 69 -5 93 -11z"/>
<path d="M5453 5222 c3 -143 8 -265 12 -272 5 -8 57 -10 184 -8 173 4 176 5
188 28 6 13 8 32 4 44 -8 20 -16 21 -150 24 l-141 3 0 59 c0 70 -6 68 148 72
77 3 106 7 112 18 14 22 12 36 -6 54 -12 13 -39 16 -130 16 l-114 0 0 64 0 63
135 -1 c110 -1 137 2 145 14 8 13 4 58 -7 70 -3 3 -90 6 -194 8 l-190 3 4
-259z"/>
<path d="M5965 5470 l-40 -5 4 -255 c2 -148 8 -260 13 -267 14 -18 43 -16 62
3 13 13 16 44 16 182 0 133 3 164 13 154 6 -7 59 -81 117 -164 119 -171 144
-195 186 -181 l29 10 0 264 0 264 -40 0 -40 0 -5 -185 -5 -185 -70 105 c-109
162 -179 259 -190 263 -5 1 -28 0 -50 -3z"/>
<path d="M6446 5455 c-4 -14 -4 -36 0 -50 6 -24 10 -25 79 -25 l72 0 6 -137
c4 -75 7 -169 7 -208 0 -81 11 -99 57 -93 l28 3 3 218 2 217 79 0 c101 0 131
24 101 81 -10 18 -23 19 -219 19 l-209 0 -6 -25z"/>
<path d="M4130 4617 c-38 -19 -58 -61 -219 -482 -261 -679 -252 -648 -198
-689 22 -17 41 -20 103 -19 41 1 82 7 89 13 18 15 68 120 91 189 l16 51 227 0
226 0 38 -98 c21 -54 48 -111 61 -127 23 -28 26 -29 111 -30 79 0 88 2 106 24
10 13 19 34 19 48 0 22 -161 409 -292 703 -33 74 -85 193 -114 264 -30 71 -61
137 -70 148 -14 14 -32 18 -93 18 -42 0 -87 -6 -101 -13z m116 -384 c4 -16 33
-97 65 -182 33 -85 59 -156 59 -157 0 -2 -65 -4 -145 -4 -80 0 -145 2 -145 4
0 3 13 37 29 78 16 40 48 121 71 181 23 59 46 107 51 107 5 0 12 -12 15 -27z"/>
<path d="M5023 4608 c-20 -22 -21 -35 -25 -564 -6 -613 -8 -595 64 -614 67
-19 137 -8 165 24 22 26 23 35 23 174 l0 147 114 -3 c143 -5 236 10 323 52
129 63 199 149 224 274 37 194 -47 387 -209 475 -86 47 -161 57 -423 57 -232
0 -236 0 -256 -22z m527 -232 c79 -41 110 -93 110 -182 0 -66 -13 -100 -53
-142 -40 -42 -75 -51 -229 -59 l-128 -6 0 207 0 208 133 -4 c104 -3 140 -7
167 -22z"/>
<path d="M6153 4620 c-12 -5 -26 -18 -32 -29 -8 -13 -11 -197 -11 -561 l0
-542 34 -34 c32 -32 38 -34 104 -34 39 0 78 3 87 6 43 17 43 30 38 609 l-6
549 -23 23 c-20 20 -33 23 -96 22 -40 0 -83 -4 -95 -9z"/>
<path d="M2760 4046 c11 -14 16 -81 21 -339 8 -350 24 -501 79 -737 15 -69 32
-141 35 -160 15 -74 89 -276 141 -387 66 -142 131 -240 191 -291 45 -39 45
-40 54 -123 11 -109 38 -186 93 -262 58 -82 89 -110 161 -145 113 -56 172 -67
365 -67 152 0 185 3 253 23 193 55 280 139 348 334 17 50 34 82 41 81 7 -2 54
-12 103 -24 130 -30 541 -38 740 -15 77 9 165 23 195 31 30 8 58 15 62 15 4 0
15 -28 24 -61 20 -72 93 -189 150 -239 49 -45 192 -115 264 -130 96 -20 335
-24 417 -7 201 43 330 165 379 359 9 35 14 83 12 110 -5 48 -5 49 57 111 84
85 155 195 236 362 87 178 130 313 173 534 47 239 54 309 66 656 6 165 12 315
15 333 3 27 1 32 -13 28 -9 -3 -46 -10 -82 -15 -150 -23 -140 -18 -140 -70 l1
-46 17 28 c17 28 48 44 60 32 10 -10 4 -502 -8 -630 -27 -299 -100 -575 -219
-836 -70 -152 -107 -209 -202 -313 -63 -67 -200 -173 -233 -179 -6 -1 -13 -5
-16 -9 -3 -3 -14 -8 -25 -10 -11 -1 -22 -5 -25 -8 -12 -12 -62 -30 -71 -25 -5
4 -9 2 -9 -3 0 -9 -33 -18 -127 -38 -15 -3 -23 0 -23 10 0 16 -21 26 -56 26
-15 0 -24 -6 -24 -16 0 -13 7 -15 35 -10 21 4 35 3 35 -3 0 -15 -36 -23 -76
-15 -23 4 -35 3 -31 -3 6 -9 -217 -11 -258 -1 -62 14 -116 32 -121 39 -3 5 2
6 10 3 9 -3 16 -1 16 5 0 6 -4 11 -9 11 -12 0 -6 123 8 149 7 11 10 21 9 22
-2 0 -21 3 -43 5 -22 3 -42 10 -46 15 -4 7 -12 5 -21 -5 -26 -26 -117 -55
-233 -75 -136 -24 -297 -36 -318 -25 -8 5 -46 7 -84 4 l-68 -4 60 -7 c89 -10
-75 -3 -245 11 -155 12 -259 31 -372 66 -43 14 -96 24 -116 22 -34 -3 -37 -5
-35 -33 0 -16 -1 -25 -3 -18 -4 8 -14 9 -34 3 -16 -5 -38 -6 -49 -3 -12 3 -29
2 -38 -2 -16 -6 -15 -8 7 -17 23 -10 22 -11 -30 -25 -45 -12 -65 -12 -111 -3
-38 8 -66 9 -91 2 -36 -10 -88 -6 -88 7 0 4 -22 14 -50 21 -28 8 -50 19 -50
27 0 7 -9 13 -20 13 -11 0 -20 5 -20 10 0 6 -9 10 -20 10 -11 0 -20 6 -20 14
0 8 -9 18 -20 21 -11 3 -20 12 -20 20 0 8 -17 16 -40 20 -22 4 -40 11 -40 16
0 4 -6 6 -14 3 -9 -3 -17 3 -21 15 -8 27 -32 27 -41 -1 -6 -20 -7 -21 -17 -2
-16 29 -34 44 -51 44 -9 0 -16 8 -16 20 0 11 -4 20 -10 20 -5 0 -10 -11 -10
-25 0 -21 -5 -25 -30 -25 -29 0 -30 -1 -26 -40 2 -26 0 -40 -8 -40 -6 0 -4 -5
4 -10 9 -6 10 -10 3 -10 -46 0 -209 271 -272 455 -62 183 -125 450 -156 670
-14 91 -32 436 -34 628 -1 50 12 61 35 30 11 -15 16 -16 33 -5 30 17 31 16 32
-30 1 -37 2 -39 9 -18 4 14 8 44 9 66 l1 41 -122 23 c-68 12 -130 25 -138 28
-13 5 -13 4 0 -12z m1605 -1992 c8 3 25 1 37 -4 13 -5 17 -9 9 -9 -7 -1 -11
-7 -8 -15 6 -16 -21 -11 -62 10 -14 7 -29 10 -35 7 -6 -4 -5 1 3 10 10 13 17
15 27 6 8 -6 21 -9 29 -5z m-896 -78 c71 -74 327 -157 531 -172 88 -7 229 7
319 31 47 12 50 12 42 -4 -17 -31 -118 -120 -156 -135 -20 -9 -73 -23 -117
-32 -114 -23 -338 -15 -421 15 -97 34 -176 102 -220 188 -19 37 -34 143 -20
143 5 0 24 -15 42 -34z m3285 -87 c-22 -60 -78 -136 -123 -166 -69 -47 -139
-65 -266 -71 -234 -9 -363 24 -459 120 -32 32 -56 61 -53 65 3 3 44 -2 91 -11
112 -23 355 -24 451 -3 102 23 260 90 319 136 l51 40 3 -30 c2 -17 -5 -53 -14
-80z"/>
<path d="M3004 3610 c0 -91 2 -128 3 -82 2 45 2 119 0 165 -1 45 -3 8 -3 -83z"/>
<path d="M3011 3331 c-2 -52 59 -230 96 -283 21 -28 30 -49 23 -53 -5 -3 -10
-13 -10 -21 0 -10 12 -14 40 -14 35 0 40 3 40 23 0 30 24 52 70 65 19 6 27 11
17 11 -26 1 -95 38 -152 81 -68 50 -105 107 -115 172 -6 41 -8 45 -9 19z"/>
<path d="M3520 3060 c-113 -3 -191 -7 -173 -8 18 -1 37 -10 43 -19 8 -12 10
-13 7 -3 -3 12 6 15 42 16 25 1 36 0 24 -3 -19 -4 -23 -11 -23 -44 0 -33 -3
-40 -17 -37 -10 1 -24 -1 -32 -6 -8 -5 -16 -4 -21 4 -5 8 -20 11 -38 8 -17 -2
-29 -1 -27 2 3 4 -4 15 -14 24 -13 12 -21 14 -26 7 -3 -6 1 -14 9 -17 20 -8
21 -34 2 -34 -8 0 -17 7 -20 16 -11 29 -21 6 -18 -40 3 -37 8 -46 23 -46 17 0
19 -8 19 -99 0 -86 -2 -100 -17 -105 -10 -2 -2 -2 17 0 20 3 51 -1 72 -10 24
-10 65 -16 115 -15 54 1 70 3 53 9 -22 7 -20 8 15 10 22 1 77 3 123 5 89 4
102 8 102 31 0 31 23 41 87 36 52 -4 62 -8 72 -28 13 -29 41 -32 41 -5 0 11 4
22 8 25 5 3 6 -8 4 -25 -4 -28 -2 -29 32 -29 20 0 36 -3 36 -7 0 -5 13 -17 28
-27 l27 -19 -26 29 c-83 92 -236 324 -245 369 -5 28 -11 33 -42 39 -21 3 -41
5 -47 4 -5 -1 -102 -5 -215 -8z m97 -122 c-3 -8 -6 -5 -6 6 -1 11 2 17 5 13 3
-3 4 -12 1 -19z"/>
<path d="M6401 3034 c-6 -22 -18 -49 -26 -61 -17 -24 -8 -32 13 -11 9 9 12 2
12 -35 0 -39 -3 -47 -19 -47 -10 0 -22 8 -25 17 -5 13 -15 4 -42 -38 -20 -30
-43 -62 -52 -72 -8 -9 -12 -20 -8 -24 4 -4 10 -3 14 3 13 19 42 25 48 9 5 -11
24 -15 80 -15 53 0 74 -4 74 -13 0 -19 60 -42 108 -40 55 2 61 8 33 32 -13 12
-18 22 -12 26 6 3 22 -5 35 -20 20 -21 25 -23 30 -9 9 24 7 31 -4 14 -8 -12
-10 -11 -10 8 0 17 -6 22 -27 23 l-28 0 23 12 c19 8 25 8 32 -4 7 -10 12 -11
20 -3 8 8 4 15 -14 27 -17 11 -23 22 -19 37 5 17 1 20 -31 20 -22 0 -39 6 -42
14 -5 12 -9 12 -33 0 -17 -9 -41 -12 -60 -8 -29 6 -31 9 -26 35 4 16 3 29 -2
29 -5 0 -7 15 -5 33 3 24 12 38 35 52 47 29 55 30 30 6 -26 -25 -29 -33 -9
-25 10 4 16 -3 19 -18 2 -13 4 -8 3 11 -1 33 1 35 44 47 l45 12 -66 1 c-37 1
-80 4 -97 7 -29 6 -31 4 -41 -32z m66 -226 c-2 -13 -4 -5 -4 17 -1 22 1 32 4
23 2 -10 2 -28 0 -40z m-47 27 c-10 -12 -10 -18 0 -30 16 -19 3 -20 -16 0 -13
12 -13 17 -2 29 17 20 34 20 18 1z m173 0 c-3 -9 -8 -14 -10 -11 -3 3 -2 9 2
15 9 16 15 13 8 -4z m-88 -45 c3 -5 1 -10 -4 -10 -6 0 -11 5 -11 10 0 6 2 10
4 10 3 0 8 -4 11 -10z m20 -40 c3 -5 -1 -10 -10 -10 -9 0 -13 5 -10 10 3 6 8
10 10 10 2 0 7 -4 10 -10z"/>
<path d="M6534 2980 c0 -13 4 -16 10 -10 7 7 7 13 0 20 -6 6 -10 3 -10 -10z"/>
<path d="M6450 2951 c0 -6 4 -11 9 -11 5 0 12 -8 14 -17 4 -15 5 -15 6 -2 0 9
-6 22 -14 29 -10 9 -15 9 -15 1z"/>
<path d="M3071 2744 c0 -11 3 -14 6 -6 3 7 2 16 -1 19 -3 4 -6 -2 -5 -13z"/>
<path d="M6220 2735 c-8 -9 -8 -15 -2 -15 12 0 26 19 19 26 -2 2 -10 -2 -17
-11z"/>
<path d="M3776 2714 c-12 -31 3 -34 22 -4 10 16 10 20 -2 20 -8 0 -17 -7 -20
-16z"/>
<path d="M6593 2673 c9 -2 25 -2 35 0 9 3 1 5 -18 5 -19 0 -27 -2 -17 -5z"/>
<path d="M3588 2653 c17 -2 47 -2 65 0 17 2 3 4 -33 4 -36 0 -50 -2 -32 -4z"/>
<path d="M4230 2506 c0 -2 7 -9 15 -16 9 -7 15 -8 15 -2 0 5 -7 12 -15 16 -8
3 -15 4 -15 2z"/>
<path d="M5560 2330 c-23 -7 -23 -8 -3 -9 12 -1 25 4 28 9 3 6 5 10 3 9 -2 -1
-14 -5 -28 -9z"/>
<path d="M4671 2316 c9 -9 168 -36 204 -35 17 1 -6 7 -50 13 -44 7 -98 16
-120 20 -22 4 -37 5 -34 2z"/>
<path d="M5380 2299 c-70 -11 -180 -19 -280 -20 -145 -2 -157 -3 -95 -11 82
-10 305 -6 298 5 -2 4 15 7 39 7 46 1 165 24 175 34 8 8 2 7 -137 -15z"/>
<path d="M3630 2260 c0 -5 5 -10 10 -10 6 0 10 5 10 10 0 6 -4 10 -10 10 -5 0
-10 -4 -10 -10z"/>
<path d="M1810 2245 c0 -2 9 -9 20 -15 16 -9 18 -8 14 5 -5 13 -34 22 -34 10z"/>
<path d="M2280 2090 c0 -149 0 -150 23 -150 13 0 17 3 10 8 -11 7 -24 213 -15
240 7 23 21 11 20 -18 -1 -17 2 -33 5 -37 4 -3 7 19 7 50 0 54 -1 57 -25 57
l-25 0 0 -150z"/>
<path d="M1760 2169 c-6 -11 -18 -39 -26 -62 -12 -37 -12 -40 1 -23 8 11 15
23 15 27 0 4 5 20 11 36 8 22 12 24 19 13 8 -12 10 -10 10 8 0 28 -16 29 -30
1z"/>
<path d="M2202 2138 c-1 -23 2 -28 8 -18 12 19 13 50 2 50 -5 0 -9 -14 -10
-32z"/>
<path d="M5280 2111 c0 -11 49 -21 67 -14 27 10 12 23 -27 23 -22 0 -40 -4
-40 -9z"/>
<path d="M3890 2095 c0 -8 5 -15 10 -15 6 0 10 7 10 15 0 8 -4 15 -10 15 -5 0
-10 -7 -10 -15z"/>
<path d="M4593 2103 c9 -2 23 -2 30 0 6 3 -1 5 -18 5 -16 0 -22 -2 -12 -5z"/>
<path d="M5200 2080 c0 -5 9 -10 20 -10 11 0 20 5 20 10 0 6 -9 10 -20 10 -11
0 -20 -4 -20 -10z"/>
<path d="M4818 2063 c6 -2 18 -2 25 0 6 3 1 5 -13 5 -14 0 -19 -2 -12 -5z"/>
<path d="M5363 2063 c9 -2 23 -2 30 0 6 3 -1 5 -18 5 -16 0 -22 -2 -12 -5z"/>
<path d="M1703 2031 c-6 -10 -15 -35 -18 -55 -7 -33 -5 -36 16 -36 21 1 22 2
6 11 -18 11 -15 50 6 77 5 7 8 14 6 17 -3 2 -10 -4 -16 -14z"/>
<path d="M2322 2025 c0 -16 2 -22 5 -12 2 9 2 23 0 30 -3 6 -5 -1 -5 -18z"/>
</g>
</svg>
